<?xml version="1.0" standalone="no"?>
<svg version="1.0" xmlns="http://www.w3.org/2000/svg"
 width="400.000000" height="400.000000" 
 viewBox="0 0 400.000000 400.000000"
 baseProfile="full"
 preserveAspectRatio="xMidYMid meet">

<g transform="translate(0.000000,336.000000) scale(0.100000,-0.100000)"
fill="#cc3917" stroke="none" stroke-opacity="0">
<path d="M708 2533 c-50 -42 -65 -62 -103 -135 -94 -182 -260 -780 -334 -1208
-51 -289 -65 -568 -35 -670 29 -99 95 -133 329 -170 180 -29 298 -37 905 -65
1255 -57 2027 -76 2070 -53 64 35 24 120 -82 174 -102 52 -473 86 -1393 129
-716 33 -1278 72 -1381 95 -61 14 -97 34 -124 67 -21 26 -22 36 -17 133 7 150
94 545 272 1246 89 348 90 357 51 416 -17 26 -84 68 -109 68 -9 0 -30 -12 -49
-27z"/>
<path d="M2318 1704 c-53 -28 -73 -105 -43 -164 36 -69 144 -80 197 -21 23 26
28 41 28 82 0 45 -4 55 -34 85 -28 28 -41 34 -77 34 -24 -1 -56 -7 -71 -16z"/>
<path d="M2775 1589 c-27 -5 -60 -12 -72 -14 l-23 -5 0 -340 c0 -353 5 -415
43 -482 21 -39 70 -78 122 -99 67 -26 291 -10 311 23 4 6 1 43 -6 83 l-12 73
-32 -9 c-17 -5 -59 -9 -93 -9 -113 0 -136 50 -131 281 l3 124 128 3 127 3 0
84 0 85 -130 0 -130 0 0 105 0 105 -27 -1 c-16 -1 -50 -5 -78 -10z"/>
<path d="M839 1387 c-141 -53 -225 -173 -236 -339 -14 -192 64 -327 224 -389
75 -29 223 -31 336 -5 86 19 83 13 66 117 -11 64 -14 69 -33 63 -54 -18 -97
-24 -171 -24 -96 0 -156 25 -192 79 -42 62 -47 61 212 61 l234 0 7 36 c9 48
-11 184 -34 238 -27 60 -77 113 -136 144 -42 21 -67 26 -146 29 -63 2 -107 -1
-131 -10z m187 -172 c31 -20 52 -53 60 -93 l7 -32 -142 0 c-85 0 -141 4 -141
10 0 27 35 92 59 109 48 34 111 37 157 6z"/>
<path d="M1605 1390 c-33 -5 -81 -15 -107 -21 l-48 -11 0 -354 0 -354 105 0
105 0 0 284 0 284 45 7 c89 13 146 -16 165 -84 5 -20 10 -138 10 -263 l0 -228
103 0 102 0 -5 277 c-6 304 -8 315 -69 385 -50 57 -118 81 -241 84 -58 2 -132
-1 -165 -6z"/>
<path d="M3495 1393 c-16 -2 -65 -13 -107 -25 l-78 -20 0 -349 0 -349 100 0
100 0 2 282 3 282 45 9 c29 6 69 5 114 -2 38 -7 71 -10 73 -7 7 6 32 118 33
142 0 19 -8 23 -63 33 -61 11 -160 12 -222 4z"/>
<path d="M2280 1020 l0 -370 105 0 105 0 -2 368 -3 367 -102 3 -103 3 0 -371z"/>
</g>
</svg>
